<svg width="28" height="24" viewBox="0 0 28 24" fill="none" xmlns="http://www.w3.org/2000/svg">
<path fill-rule="evenodd" clip-rule="evenodd" d="M14.7189 22.9827L14.7029 22.9856L14.5993 23.0366L14.5702 23.0425L14.5498 23.0366L14.4462 22.9856C14.4307 22.9807 14.419 22.9832 14.4112 22.9929L14.4054 23.0075L14.3806 23.6316L14.3879 23.6608L14.4025 23.6798L14.5541 23.7877L14.576 23.7935L14.5935 23.7877L14.7452 23.6798L14.7627 23.6564L14.7685 23.6316L14.7437 23.0089C14.7398 22.9934 14.7316 22.9846 14.7189 22.9827ZM15.1054 22.8179L15.0864 22.8208L14.8166 22.9564L14.802 22.971L14.7977 22.9871L14.8239 23.6141L14.8312 23.6316L14.8429 23.6419L15.136 23.7775C15.1545 23.7823 15.1686 23.7785 15.1783 23.7658L15.1841 23.7454L15.1345 22.85C15.1297 22.8325 15.12 22.8218 15.1054 22.8179ZM14.0627 22.8208C14.0562 22.8169 14.0486 22.8157 14.0412 22.8173C14.0339 22.8189 14.0275 22.8233 14.0233 22.8296L14.0145 22.85L13.965 23.7454C13.9659 23.7629 13.9742 23.7746 13.9898 23.7804L14.0116 23.7775L14.3048 23.6419L14.3193 23.6302L14.3252 23.6141L14.35 22.9871L14.3456 22.9696L14.331 22.955L14.0627 22.8208Z" fill="#595959"/>
<path fill-rule="evenodd" clip-rule="evenodd" d="M1.15652e-06 2.18975C-0.000542586 1.66071 0.190662 1.14939 0.538201 0.750504C0.88574 0.351621 1.36606 0.0922045 1.8902 0.0203023C2.41434 -0.0515998 2.94677 0.068886 3.38889 0.359443C3.83101 0.65 4.15285 1.09094 4.29479 1.60059C7.13417 11.0827 20.5669 11.0841 23.4121 1.60788C23.492 1.33073 23.626 1.07213 23.8063 0.846969C23.9866 0.621803 24.2096 0.434517 24.4626 0.29589C24.7155 0.157263 24.9934 0.070032 25.2802 0.0392183C25.567 0.00840453 25.857 0.0346163 26.1337 0.116345C26.4103 0.198074 26.668 0.333705 26.892 0.515433C27.116 0.697162 27.3019 0.921399 27.4389 1.17524C27.5759 1.42907 27.6613 1.7075 27.6903 1.99449C27.7193 2.28148 27.6912 2.57136 27.6077 2.84746C27.1094 4.55023 26.3076 6.14896 25.2408 7.56663L26.6408 8.96663C26.8497 9.16852 27.0162 9.40997 27.1307 9.67691C27.2452 9.94385 27.3054 10.2309 27.3078 10.5214C27.3102 10.8118 27.2547 11.0999 27.1446 11.3686C27.0345 11.6374 26.872 11.8816 26.6665 12.0869C26.461 12.2922 26.2167 12.4545 25.9478 12.5643C25.6789 12.6742 25.3908 12.7294 25.1004 12.7268C24.8099 12.7241 24.5229 12.6636 24.2561 12.5488C23.9892 12.4341 23.7479 12.2673 23.5462 12.0583L22.0733 10.5854C21.3078 11.1098 20.4919 11.5568 19.6379 11.9198L19.9923 13.241C20.1267 13.796 20.0388 14.3816 19.7473 14.8726C19.4558 15.3636 18.9839 15.7212 18.4323 15.869C17.8807 16.0167 17.2932 15.9429 16.7952 15.6633C16.2973 15.3838 15.9285 14.9205 15.7675 14.3727L15.4015 13.0091C14.3733 13.1156 13.335 13.1156 12.3069 13.0091L11.9423 14.3727C11.7922 14.9331 11.4257 15.411 10.9233 15.7011C10.4209 15.9913 9.82377 16.07 9.26333 15.92C8.7029 15.7699 8.22503 15.4033 7.93486 14.9009C7.64468 14.3985 7.56597 13.8014 7.71604 13.241L8.06896 11.9183C7.2155 11.5557 6.40017 11.1092 5.635 10.5854L4.16208 12.0583C3.96039 12.2673 3.71909 12.4341 3.45226 12.5488C3.18543 12.6636 2.89842 12.7241 2.60797 12.7268C2.31751 12.7294 2.02944 12.6742 1.76055 12.5643C1.49167 12.4545 1.24735 12.2922 1.04187 12.0869C0.836382 11.8816 0.673839 11.6374 0.563723 11.3686C0.453606 11.0999 0.398123 10.8118 0.400509 10.5214C0.402895 10.2309 0.463103 9.94385 0.57762 9.67691C0.692137 9.40997 0.85867 9.16852 1.0675 8.96663L2.4675 7.56663C1.40324 6.15127 0.602939 4.5556 0.105001 2.85621C0.035747 2.64083 0.00032572 2.416 1.15652e-06 2.18975Z" fill="#595959"/>
</svg>
