<svg width="16" height="16" viewBox="0 0 16 16" fill="none" xmlns="http://www.w3.org/2000/svg">
<path d="M10.7812 0V3.93084L8.625 5.21094V3.03241L7.54688 3.70588L5.03125 5.21094V3.03241L3.95312 3.70588L0.359375 5.86212L0 6.06409V15.8125H15.8125V0H10.7812ZM12.2188 1.4375H14.375V14.375H1.4375V6.85041L3.59375 5.57031V7.74884L4.67188 7.07538L7.1875 5.57031V7.74884L8.26562 7.07538L11.8594 4.91913L12.2188 4.71716V1.4375ZM2.875 8.625V10.0625H4.3125V8.625H2.875ZM5.75 8.625V10.0625H7.1875V8.625H5.75ZM8.625 8.625V10.0625H10.0625V8.625H8.625ZM11.5 8.625V10.0625H12.9375V8.625H11.5ZM2.875 11.5V12.9375H4.3125V11.5H2.875ZM5.75 11.5V12.9375H7.1875V11.5H5.75ZM8.625 11.5V12.9375H10.0625V11.5H8.625ZM11.5 11.5V12.9375H12.9375V11.5H11.5Z" fill="#0A4E4E"/>
</svg>
