<svg width="22" height="20" viewBox="0 0 22 20" fill="none" xmlns="http://www.w3.org/2000/svg">
<path fill-rule="evenodd" clip-rule="evenodd" d="M18.353 4.5H15.49V7H5.404V13H15.49V15.5H18.354C17.4437 16.8839 16.2037 18.0196 14.7454 18.8052C13.2871 19.5907 11.6564 20.0013 10 20C4.477 20 0 15.523 0 10C0 4.477 4.477 2.27543e-06 10 2.27543e-06C11.6562 -0.00111544 13.2867 0.40956 14.7448 1.19507C16.2029 1.98059 17.4428 3.1163 18.353 4.5Z" fill="#0A4E4E"/>
<path fill-rule="evenodd" clip-rule="evenodd" d="M17.9902 6L21.9902 10L17.9902 14H16.9902V11.5H6.99023V8.5H16.9902V6H17.9902Z" fill="#0A4E4E"/>
</svg>
