<svg width="22" height="22" viewBox="0 0 22 22" fill="none" xmlns="http://www.w3.org/2000/svg">
<path d="M20.75 10.75C20.75 16.273 16.273 20.75 10.75 20.75C5.227 20.75 0.75 16.273 0.75 10.75C0.75 5.227 5.227 0.75 10.75 0.75C16.273 0.75 20.75 5.227 20.75 10.75Z" stroke="#0A4E4E" stroke-width="1.5"/>
<path d="M8.75 14.75V7.75C8.75 7.48478 8.85536 7.23043 9.04289 7.04289C9.23043 6.85536 9.48478 6.75 9.75 6.75H11.5C12.0967 6.75 12.669 6.98705 13.091 7.40901C13.5129 7.83097 13.75 8.40326 13.75 9C13.75 9.59674 13.5129 10.169 13.091 10.591C12.669 11.0129 12.0967 11.25 11.5 11.25H8.75M11.75 11.25L13.25 14.75" stroke="#0A4E4E" stroke-width="1.5" stroke-linecap="round" stroke-linejoin="round"/>
</svg>
