<svg width="24" height="22" viewBox="0 0 24 22" fill="none" xmlns="http://www.w3.org/2000/svg">
<g filter="url(#filter0_d_51_23)">
<path d="M10.5 1.91687e-08C12.096 -0.000107143 13.6597 0.449106 15.0123 1.29623C16.3649 2.14336 17.4517 3.35417 18.1482 4.79009C18.8448 6.22602 19.123 7.82905 18.9511 9.41573C18.7792 11.0024 18.164 12.5086 17.176 13.762L20.828 17.414C21.0102 17.6026 21.111 17.8552 21.1087 18.1174C21.1064 18.3796 21.0012 18.6304 20.8158 18.8158C20.6304 19.0012 20.3796 19.1064 20.1174 19.1087C19.8552 19.111 19.6026 19.0102 19.414 18.828L15.762 15.176C14.6975 16.015 13.4477 16.5872 12.117 16.8449C10.7864 17.1026 9.41333 17.0384 8.11252 16.6576C6.81171 16.2768 5.62084 15.5904 4.63925 14.6557C3.65766 13.7211 2.91382 12.5652 2.46979 11.2846C2.02576 10.004 1.89442 8.63574 2.08672 7.29404C2.27902 5.95235 2.78939 4.67609 3.57525 3.57175C4.3611 2.46742 5.39966 1.56702 6.60427 0.945694C7.80887 0.324364 9.1446 0.000115492 10.5 1.91687e-08ZM10.5 2C8.7761 2 7.1228 2.68482 5.90382 3.90381C4.68483 5.12279 4.00001 6.77609 4.00001 8.5C4.00001 10.2239 4.68483 11.8772 5.90382 13.0962C7.1228 14.3152 8.7761 15 10.5 15C12.2239 15 13.8772 14.3152 15.0962 13.0962C16.3152 11.8772 17 10.2239 17 8.5C17 6.77609 16.3152 5.12279 15.0962 3.90381C13.8772 2.68482 12.2239 2 10.5 2ZM10.5 3C11.9587 3 13.3576 3.57946 14.3891 4.61091C15.4205 5.64236 16 7.04131 16 8.5C16 9.95869 15.4205 11.3576 14.3891 12.3891C13.3576 13.4205 11.9587 14 10.5 14C9.04132 14 7.64237 13.4205 6.61092 12.3891C5.57947 11.3576 5.00001 9.95869 5.00001 8.5C5.00001 7.04131 5.57947 5.64236 6.61092 4.61091C7.64237 3.57946 9.04132 3 10.5 3Z" fill="#0A4E4E"/>
</g>
<defs>
<filter id="filter0_d_51_23" x="-1.99927" y="0" width="27.108" height="27.1088" filterUnits="userSpaceOnUse" color-interpolation-filters="sRGB">
<feFlood flood-opacity="0" result="BackgroundImageFix"/>
<feColorMatrix in="SourceAlpha" type="matrix" values="0 0 0 0 0 0 0 0 0 0 0 0 0 0 0 0 0 0 127 0" result="hardAlpha"/>
<feOffset dy="4"/>
<feGaussianBlur stdDeviation="2"/>
<feComposite in2="hardAlpha" operator="out"/>
<feColorMatrix type="matrix" values="0 0 0 0 0 0 0 0 0 0 0 0 0 0 0 0 0 0 0.25 0"/>
<feBlend mode="normal" in2="BackgroundImageFix" result="effect1_dropShadow_51_23"/>
<feBlend mode="normal" in="SourceGraphic" in2="effect1_dropShadow_51_23" result="shape"/>
</filter>
</defs>
</svg>
