<svg width="19" height="19" viewBox="0 0 19 19" fill="none" xmlns="http://www.w3.org/2000/svg">
<path d="M6.69167 18.3333L6.325 15.4C6.12639 15.3236 5.93939 15.2319 5.764 15.125C5.58861 15.0181 5.41658 14.9035 5.24792 14.7812L2.52083 15.9271L0 11.5729L2.36042 9.78542C2.34514 9.67847 2.3375 9.5755 2.3375 9.4765V8.85775C2.3375 8.75814 2.34514 8.65486 2.36042 8.54792L0 6.76042L2.52083 2.40625L5.24792 3.55208C5.41597 3.42986 5.59167 3.31528 5.775 3.20833C5.95833 3.10139 6.14167 3.00972 6.325 2.93333L6.69167 0H11.7333L12.1 2.93333C12.2986 3.00972 12.4859 3.10139 12.6619 3.20833C12.8379 3.31528 13.0096 3.42986 13.1771 3.55208L15.9042 2.40625L18.425 6.76042L16.0646 8.54792C16.0799 8.65486 16.0875 8.75814 16.0875 8.85775V9.47558C16.0875 9.57519 16.0722 9.67847 16.0417 9.78542L18.4021 11.5729L15.8812 15.9271L13.1771 14.7812C13.009 14.9035 12.8333 15.0181 12.65 15.125C12.4667 15.2319 12.2833 15.3236 12.1 15.4L11.7333 18.3333H6.69167ZM9.25833 12.375C10.1444 12.375 10.9007 12.0618 11.5271 11.4354C12.1535 10.809 12.4667 10.0528 12.4667 9.16667C12.4667 8.28056 12.1535 7.52431 11.5271 6.89792C10.9007 6.27153 10.1444 5.95833 9.25833 5.95833C8.35695 5.95833 7.59672 6.27153 6.97767 6.89792C6.35861 7.52431 6.04939 8.28056 6.05 9.16667C6.05061 10.0528 6.36014 10.809 6.97858 11.4354C7.59703 12.0618 8.35695 12.375 9.25833 12.375Z" fill="#0A4E4E"/>
</svg>
