<svg width="42" height="38" viewBox="0 0 42 38" fill="none" xmlns="http://www.w3.org/2000/svg">
<path d="M33.3333 25H29.1667V29.1667H33.3333M33.3333 16.6667H29.1667V20.8333H33.3333M37.5 33.3333H20.8333V29.1667H25V25H20.8333V20.8333H25V16.6667H20.8333V12.5H37.5M16.6667 8.33333H12.5V4.16667H16.6667M16.6667 16.6667H12.5V12.5H16.6667M16.6667 25H12.5V20.8333H16.6667M16.6667 33.3333H12.5V29.1667H16.6667M8.33333 8.33333H4.16667V4.16667H8.33333M8.33333 16.6667H4.16667V12.5H8.33333M8.33333 25H4.16667V20.8333H8.33333M8.33333 33.3333H4.16667V29.1667H8.33333M20.8333 8.33333V0H0V37.5H41.6667V8.33333H20.8333Z" fill="white"/>
</svg>
